<svg xmlns="http://www.w3.org/2000/svg" width="256" height="256" viewBox="0 0 256 256"><defs><linearGradient id="bg" x1="28" y1="24" x2="228" y2="232" gradientUnits="userSpaceOnUse"><stop stop-color="#6366f1"/><stop offset="1" stop-color="#0891b2"/></linearGradient><linearGradient id="shine" x1="0" y1="0" x2="1" y2="1"><stop stop-color="#fff" stop-opacity=".24"/><stop offset="1" stop-color="#fff" stop-opacity="0"/></linearGradient><filter id="shadow"><feDropShadow dx="0" dy="9" stdDeviation="10" flood-color="#020617" flood-opacity=".28"/></filter></defs><rect x="8" y="8" width="240" height="240" rx="58" fill="url(#bg)"/><path d="M40 42c42-35 134-35 177 5-17 15-43 22-71 18-42-6-72 3-106 27z" fill="url(#shine)"/><circle cx="199" cy="52" r="23" fill="#fff" fill-opacity=".12"/><g transform="translate(48 48) scale(2.5)" fill="none" stroke="#fff" stroke-width="3.7" stroke-linecap="round" stroke-linejoin="round" filter="url(#shadow)"><rect x="8" y="11" width="48" height="40" rx="6"/><path d="m12 43 12-12 9 8 8-9 11 13"/><circle cx="22" cy="23" r="4"/><path d="m43 5 10 10-7 4-8 14-7-7 14-8zM31 26 15 50"/></g></svg>