<svg xmlns="http://www.w3.org/2000/svg" width="256" height="256" viewBox="0 0 256 256" role="img" aria-label="AI 写作工作室">
  <defs><linearGradient id="bg" x1="24" y1="18" x2="230" y2="238" gradientUnits="userSpaceOnUse"><stop stop-color="#cb4ddb"/><stop offset=".52" stop-color="#c026d3"/><stop offset="1" stop-color="#4a1862"/></linearGradient><filter id="shadow" x="-20%" y="-20%" width="140%" height="150%"><feDropShadow dx="0" dy="9" stdDeviation="8" flood-color="#000" flood-opacity=".22"/></filter></defs>
  <rect x="14" y="12" width="228" height="228" rx="58" fill="url(#bg)" filter="url(#shadow)"/>
  <circle cx="54" cy="52" r="44" fill="#fff" opacity=".08"/><circle cx="210" cy="204" r="58" fill="#fff" opacity=".08"/>
  <rect x="23" y="21" width="210" height="210" rx="49" fill="none" stroke="#fff" stroke-width="2" opacity=".16"/>
  <g transform="translate(48 48) scale(6.6667)" fill="none" stroke="#fff" stroke-width="1.8" stroke-linecap="round" stroke-linejoin="round"><path d="M20 17v-12c0 -1.121 -.879 -2 -2 -2s-2 .879 -2 2v12l2 2l2 -2" />
  <path d="M16 7h4" />
  <path d="M18 19h-13a2 2 0 1 1 0 -4h4a2 2 0 1 0 0 -4h-3" /></g>
  <g transform="translate(184 34)"><circle cx="20" cy="20" r="20" fill="#101828" opacity=".92"/><path d="M20 8l2.8 8.2L31 19l-8.2 2.8L20 30l-2.8-8.2L9 19l8.2-2.8z" fill="#fff"/><circle cx="31" cy="8" r="3" fill="#fff" opacity=".8"/></g>
</svg>